<?xml version="1.0" encoding="UTF-8" standalone="no"?>
<svg
   xmlns:dc="http://purl.org/dc/elements/1.1/"
   xmlns:cc="http://creativecommons.org/ns#"
   xmlns:rdf="http://www.w3.org/1999/02/22-rdf-syntax-ns#"
   xmlns:svg="http://www.w3.org/2000/svg"
   xmlns="http://www.w3.org/2000/svg"
   xmlns:sodipodi="http://sodipodi.sourceforge.net/DTD/sodipodi-0.dtd"
   xmlns:inkscape="http://www.inkscape.org/namespaces/inkscape"
   width="126.88883mm"
   height="147.01576mm"
   viewBox="0 0 126.88883 147.01576"
   version="1.1"
   id="svg7661"
   inkscape:version="0.92.3 (2405546, 2018-03-11)"
   sodipodi:docname="logo.svg">
  <defs
     id="defs7655">
    <inkscape:perspective
       sodipodi:type="inkscape:persp3d"
       inkscape:vp_x="0 : 148.49999 : 1"
       inkscape:vp_y="0 : 999.99992 : 0"
       inkscape:vp_z="210 : 148.49999 : 1"
       inkscape:persp3d-origin="105 : 98.999992 : 1"
       id="perspective8224" />
  </defs>
  <sodipodi:namedview
     id="base"
     pagecolor="#ffffff"
     bordercolor="#666666"
     borderopacity="1.0"
     inkscape:pageopacity="0.0"
     inkscape:pageshadow="2"
     inkscape:zoom="0.35355339"
     inkscape:cx="55.972109"
     inkscape:cy="260.95738"
     inkscape:document-units="mm"
     inkscape:current-layer="layer1"
     inkscape:document-rotation="0"
     showgrid="false"
     inkscape:window-width="1853"
     inkscape:window-height="1016"
     inkscape:window-x="67"
     inkscape:window-y="27"
     inkscape:window-maximized="1"
     fit-margin-top="1"
     fit-margin-left="1"
     fit-margin-right="1"
     fit-margin-bottom="1" />
  <metadata
     id="metadata7658">
    <rdf:RDF>
      <cc:Work
         rdf:about="">
        <dc:format>image/svg+xml</dc:format>
        <dc:type
           rdf:resource="http://purl.org/dc/dcmitype/StillImage" />
        <dc:title></dc:title>
      </cc:Work>
    </rdf:RDF>
  </metadata>
  <g
     inkscape:label="Layer 1"
     inkscape:groupmode="layer"
     id="layer1"
     transform="translate(-35.508951,-47.409285)">
    <path
       style="fill:#e6e6e6;fill-opacity:1;stroke:#020000;stroke-width:0.49999899;stroke-miterlimit:4;stroke-dasharray:none;stroke-opacity:1"
       d="M 98.9542,48.6833 109.625,53.4717 98.9935,58.5165 88.3147,53.4574 Z"
       id="path8502"
       inkscape:connector-curvature="0" />
    <path
       style="fill:#389826;fill-opacity:1;stroke:#020000;stroke-width:0.49999899;stroke-miterlimit:4;stroke-dasharray:none;stroke-opacity:1"
       d="M 98.9542,48.6833 109.625,53.4717 98.9935,58.5165 88.3147,53.4574 Z"
       id="path8500"
       inkscape:connector-curvature="0" />
    <path
       style="fill:#389826;fill-opacity:1;stroke:#020000;stroke-width:0.49999899;stroke-miterlimit:4;stroke-dasharray:none;stroke-opacity:1"
       d="M 87.9125,53.6379 98.5912,58.7074 87.3086,64.0612 76.64,58.6961 Z"
       id="path8498"
       inkscape:connector-curvature="0" />
    <path
       style="fill:#389826;fill-opacity:1;stroke:#020000;stroke-width:0.49999899;stroke-miterlimit:4;stroke-dasharray:none;stroke-opacity:1"
       d="M 76.2134,58.8875 86.8813,64.2639 74.8861,69.9557 64.2496,64.2559 Z"
       id="path8496"
       inkscape:connector-curvature="0" />
    <path
       style="fill:#e6e6e6;fill-opacity:1;stroke:#020000;stroke-width:0.49999899;stroke-miterlimit:4;stroke-dasharray:none;stroke-opacity:1"
       d="m 63.7965,64.4592 10.6349,5.7123 -12.7775,6.063 -10.5782,-6.0673 z"
       id="path8494"
       inkscape:connector-curvature="0" />
    <path
       style="fill:#e6e6e6;fill-opacity:1;stroke:#020000;stroke-width:0.49999899;stroke-miterlimit:4;stroke-dasharray:none;stroke-opacity:1"
       d="m 50.5935,70.3836 10.5756,6.081 -13.6388,6.4717 -10.4886,-6.4717 z"
       id="path8492"
       inkscape:connector-curvature="0" />
    <path
       style="fill:#389826;fill-opacity:1;stroke:#020000;stroke-width:0.49999899;stroke-miterlimit:4;stroke-dasharray:none;stroke-opacity:1"
       d="m 110.028,53.6526 11.292,5.0665 -10.605,5.3505 -11.3177,-5.3618 z"
       id="path8490"
       inkscape:connector-curvature="0" />
    <path
       style="fill:#389826;fill-opacity:1;stroke:#020000;stroke-width:0.49999899;stroke-miterlimit:4;stroke-dasharray:none;stroke-opacity:1"
       d="m 98.995,58.8991 11.318,5.3731 -11.2737,5.6881 -11.327,-5.6961 z"
       id="path8488"
       inkscape:connector-curvature="0" />
    <path
       style="fill:#389826;fill-opacity:1;stroke:#020000;stroke-width:0.49999899;stroke-miterlimit:4;stroke-dasharray:none;stroke-opacity:1"
       d="M 87.285,64.4674 98.6119,70.1759 86.6032,76.2347 75.289,70.1717 Z"
       id="path8486"
       inkscape:connector-curvature="0" />
    <path
       style="fill:#e6e6e6;fill-opacity:1;stroke:#020000;stroke-width:0.49999899;stroke-miterlimit:4;stroke-dasharray:none;stroke-opacity:1"
       d="M 74.8343,70.3879 86.1476,76.4646 73.33,82.9315 62.055,76.4646 Z"
       id="path8484"
       inkscape:connector-curvature="0" />
    <path
       style="fill:#e6e6e6;fill-opacity:1;stroke:#020000;stroke-width:0.49999899;stroke-miterlimit:4;stroke-dasharray:none;stroke-opacity:1"
       d="M 61.5701,76.6952 72.8431,83.1771 59.132,90.0948 47.9285,83.182 Z"
       id="path8482"
       inkscape:connector-curvature="0" />
    <path
       style="fill:#389826;fill-opacity:1;stroke:#020000;stroke-width:0.49999899;stroke-miterlimit:4;stroke-dasharray:none;stroke-opacity:1"
       d="m 121.747,58.9107 11.966,5.3698 -10.554,5.6844 -12.016,-5.6924 z"
       id="path8480"
       inkscape:connector-curvature="0" />
    <path
       style="fill:#389826;fill-opacity:1;stroke:#020000;stroke-width:0.49999899;stroke-miterlimit:4;stroke-dasharray:none;stroke-opacity:1"
       d="m 110.742,64.4755 12.017,5.7048 -11.242,6.0546 -12.0487,-6.0588 z"
       id="path8478"
       inkscape:connector-curvature="0" />
    <path
       style="fill:#389826;fill-opacity:1;stroke:#020000;stroke-width:0.49999899;stroke-miterlimit:4;stroke-dasharray:none;stroke-opacity:1"
       d="M 99.041,70.3922 111.09,76.4646 99.0911,82.9267 87.0322,76.4646 Z"
       id="path8476"
       inkscape:connector-curvature="0" />
    <path
       style="fill:#e6e6e6;fill-opacity:1;stroke:#020000;stroke-width:0.49999899;stroke-miterlimit:4;stroke-dasharray:none;stroke-opacity:1"
       d="M 86.5766,76.695 98.6354,83.1721 85.8008,90.0843 73.7579,83.1769 Z"
       id="path8474"
       inkscape:connector-curvature="0" />
    <path
       style="fill:#e6e6e6;fill-opacity:1;stroke:#020000;stroke-width:0.49999899;stroke-miterlimit:4;stroke-dasharray:none;stroke-opacity:1"
       d="M 73.271,83.4232 85.3128,90.3471 71.5519,97.7582 59.5578,90.3575 Z"
       id="path8472"
       inkscape:connector-curvature="0" />
    <path
       style="fill:#e6e6e6;fill-opacity:1;stroke:#020000;stroke-width:0.49999899;stroke-miterlimit:4;stroke-dasharray:none;stroke-opacity:1"
       d="m 134.166,64.4837 12.706,5.701 -10.478,6.0503 -12.78,-6.0545 z"
       id="path8470"
       inkscape:connector-curvature="0" />
    <path
       style="fill:#e6e6e6;fill-opacity:1;stroke:#020000;stroke-width:0.49999899;stroke-miterlimit:4;stroke-dasharray:none;stroke-opacity:1"
       d="m 123.214,70.3964 12.782,6.0682 -11.182,6.4572 -12.841,-6.4572 z"
       id="path8468"
       inkscape:connector-curvature="0" />
    <path
       style="fill:#e6e6e6;fill-opacity:1;stroke:#020000;stroke-width:0.49999899;stroke-miterlimit:4;stroke-dasharray:none;stroke-opacity:1"
       d="m 111.547,76.6948 12.842,6.4723 -11.961,6.9067 -12.8792,-6.9019 z"
       id="path8466"
       inkscape:connector-curvature="0" />
    <path
       style="fill:#e6e6e6;fill-opacity:1;stroke:#020000;stroke-width:0.49999899;stroke-miterlimit:4;stroke-dasharray:none;stroke-opacity:1"
       d="m 99.0931,83.418 12.8809,6.9184 -12.8236,7.4047 -12.892,-7.3943 z"
       id="path8464"
       inkscape:connector-curvature="0" />
    <path
       style="fill:#e6e6e6;fill-opacity:1;stroke:#020000;stroke-width:0.49999899;stroke-miterlimit:4;stroke-dasharray:none;stroke-opacity:1"
       d="M 85.7703,90.6102 98.6622,98.023 84.8797,105.982 72.0082,98.0397 Z"
       id="path8462"
       inkscape:connector-curvature="0" />
    <path
       style="fill:#e6e6e6;fill-opacity:1;stroke:#020000;stroke-width:0.49999899;stroke-miterlimit:4;stroke-dasharray:none;stroke-opacity:1"
       d="m 147.353,70.4007 13.514,6.0639 -10.369,6.4524 -13.62,-6.4524 z"
       id="path8460"
       inkscape:connector-curvature="0" />
    <path
       style="fill:#e6e6e6;fill-opacity:1;stroke:#020000;stroke-width:0.49999899;stroke-miterlimit:4;stroke-dasharray:none;stroke-opacity:1"
       d="m 136.481,76.6947 13.623,6.4674 -11.089,6.9012 -13.714,-6.8964 z"
       id="path8458"
       inkscape:connector-curvature="0" />
    <path
       style="fill:#e6e6e6;fill-opacity:1;stroke:#020000;stroke-width:0.49999899;stroke-miterlimit:4;stroke-dasharray:none;stroke-opacity:1"
       d="m 124.877,83.4128 13.716,6.9129 -11.888,7.3984 -13.787,-7.3881 z"
       id="path8456"
       inkscape:connector-curvature="0" />
    <path
       style="fill:#e6e6e6;fill-opacity:1;stroke:#020000;stroke-width:0.49999899;stroke-miterlimit:4;stroke-dasharray:none;stroke-opacity:1"
       d="m 112.463,90.5993 13.789,7.4065 -12.777,7.9512 -13.8342,-7.9346 z"
       id="path8454"
       inkscape:connector-curvature="0" />
    <path
       style="fill:#e6e6e6;fill-opacity:1;stroke:#020000;stroke-width:0.49999899;stroke-miterlimit:4;stroke-dasharray:none;stroke-opacity:1"
       d="M 99.1527,98.305 112.988,106.26 99.2187,114.829 85.37,106.284 Z"
       id="use4093-14"
       inkscape:connector-curvature="0" />
    <path
       style="fill:none;stroke:#000000;stroke-width:0.26458299px;stroke-linecap:butt;stroke-linejoin:miter;stroke-opacity:1"
       d="M 37.041666,76.464582 98.954165,48.683333 160.86666,76.464582 99.218749,114.82917 Z"
       id="path8296"
       inkscape:connector-curvature="0" />
    <path
       style="fill:none;stroke:#000000;stroke-width:0.26458299px;stroke-linecap:butt;stroke-linejoin:miter;stroke-opacity:1"
       d="m 37.041666,76.46458 9.260417,72.23125 53.181249,44.18542 -0.264583,-78.05208 z"
       id="path8298"
       inkscape:connector-curvature="0" />
    <path
       style="fill:none;stroke:#000000;stroke-width:0.26458299px;stroke-linecap:butt;stroke-linejoin:miter;stroke-opacity:1"
       d="m 99.218749,114.82917 61.647911,-38.36459 -9.525,71.70208 -51.858331,44.71459 z"
       id="path8300"
       inkscape:connector-curvature="0" />
    <path
       style="fill:#e6e6e6;fill-opacity:1;stroke:#020000;stroke-width:0.49999899;stroke-miterlimit:4;stroke-dasharray:none;stroke-opacity:1"
       d="m 160.867,76.4646 -2.121,15.9647 -9.794,6.633 1.83,-16.3219 z"
       id="path8606"
       inkscape:connector-curvature="0" />
    <path
       style="fill:#e6e6e6;fill-opacity:1;stroke:#020000;stroke-width:0.49999899;stroke-miterlimit:4;stroke-dasharray:none;stroke-opacity:1"
       d="m 160.867,76.4646 -2.121,15.9647 -9.794,6.633 1.83,-16.3219 z"
       id="path8604"
       inkscape:connector-curvature="0" />
    <path
       style="fill:#e6e6e6;fill-opacity:1;stroke:#020000;stroke-width:0.49999899;stroke-miterlimit:4;stroke-dasharray:none;stroke-opacity:1"
       d="m 150.397,82.9801 -1.819,16.3352 -10.57,7.1587 1.474,-16.7014 z"
       id="path8602"
       inkscape:connector-curvature="0" />
    <path
       style="fill:#e6e6e6;fill-opacity:1;stroke:#020000;stroke-width:0.49999899;stroke-miterlimit:4;stroke-dasharray:none;stroke-opacity:1"
       d="m 139.064,90.0325 -1.46,16.7145 -11.442,7.749 1.05,-17.0878 z"
       id="path8600"
       inkscape:connector-curvature="0" />
    <path
       style="fill:#e6e6e6;fill-opacity:1;stroke:#020000;stroke-width:0.49999899;stroke-miterlimit:4;stroke-dasharray:none;stroke-opacity:1"
       d="m 126.758,97.6908 -1.034,17.1012 -12.426,8.415 0.545,-17.479 z"
       id="path8598"
       inkscape:connector-curvature="0" />
    <path
       style="fill:#e6e6e6;fill-opacity:1;stroke:#020000;stroke-width:0.49999899;stroke-miterlimit:4;stroke-dasharray:none;stroke-opacity:1"
       d="m 113.347,106.037 -0.525,17.493 -13.5427,9.171 -0.0606,-17.872 z"
       id="path8596"
       inkscape:connector-curvature="0" />
    <path
       style="fill:#e6e6e6;fill-opacity:1;stroke:#020000;stroke-width:0.49999899;stroke-miterlimit:4;stroke-dasharray:none;stroke-opacity:1"
       d="m 158.671,92.9946 -1.972,14.8414 -9.509,6.936 1.697,-15.1326 z"
       id="path8594"
       inkscape:connector-curvature="0" />
    <path
       style="fill:#e6e6e6;fill-opacity:1;stroke:#020000;stroke-width:0.49999899;stroke-miterlimit:4;stroke-dasharray:none;stroke-opacity:1"
       d="m 148.514,99.8928 -1.687,15.1432 -10.234,7.465 1.363,-15.438 z"
       id="path8592"
       inkscape:connector-curvature="0" />
    <path
       style="fill:#e6e6e6;fill-opacity:1;stroke:#020000;stroke-width:0.49999899;stroke-miterlimit:4;stroke-dasharray:none;stroke-opacity:1"
       d="m 137.552,107.337 -1.349,15.449 -11.046,8.056 0.968,-15.744 z"
       id="path8590"
       inkscape:connector-curvature="0" />
    <path
       style="fill:#e6e6e6;fill-opacity:1;stroke:#020000;stroke-width:0.49999899;stroke-miterlimit:4;stroke-dasharray:none;stroke-opacity:1"
       d="m 125.688,115.395 -0.953,15.755 -11.956,8.72 0.5,-16.048 z"
       id="path8588"
       inkscape:connector-curvature="0" />
    <path
       style="fill:#e6e6e6;fill-opacity:1;stroke:#020000;stroke-width:0.49999899;stroke-miterlimit:4;stroke-dasharray:none;stroke-opacity:1"
       d="m 112.804,124.145 -0.482,16.059 -12.9851,9.471 -0.0554,-16.346 z"
       id="path8586"
       inkscape:connector-curvature="0" />
    <path
       style="fill:#9558b2;fill-opacity:1;stroke:#020000;stroke-width:0.49999899;stroke-miterlimit:4;stroke-dasharray:none;stroke-opacity:1"
       d="m 156.629,108.362 -1.837,13.832 -9.24,7.182 1.578,-14.068 z"
       id="path8584"
       inkscape:connector-curvature="0" />
    <path
       style="fill:#9558b2;fill-opacity:1;stroke:#020000;stroke-width:0.49999899;stroke-miterlimit:4;stroke-dasharray:none;stroke-opacity:1"
       d="m 146.768,115.572 -1.568,14.078 -9.919,7.709 1.264,-14.312 z"
       id="path8582"
       inkscape:connector-curvature="0" />
    <path
       style="fill:#9558b2;fill-opacity:1;stroke:#020000;stroke-width:0.49999899;stroke-miterlimit:4;stroke-dasharray:none;stroke-opacity:1"
       d="m 136.155,123.332 -1.252,14.321 -10.674,8.297 0.894,-14.552 z"
       id="path8580"
       inkscape:connector-curvature="0" />
    <path
       style="fill:#e6e6e6;fill-opacity:1;stroke:#020000;stroke-width:0.49999899;stroke-miterlimit:4;stroke-dasharray:none;stroke-opacity:1"
       d="m 124.702,131.706 -0.88,14.561 -11.521,8.955 0.461,-14.786 z"
       id="path8578"
       inkscape:connector-curvature="0" />
    <path
       style="fill:#e6e6e6;fill-opacity:1;stroke:#020000;stroke-width:0.49999899;stroke-miterlimit:4;stroke-dasharray:none;stroke-opacity:1"
       d="m 112.305,140.77 -0.444,14.794 -12.4713,9.693 -0.0509,-15.007 z"
       id="path8576"
       inkscape:connector-curvature="0" />
    <path
       style="fill:#9558b2;fill-opacity:1;stroke:#020000;stroke-width:0.49999899;stroke-miterlimit:4;stroke-dasharray:none;stroke-opacity:1"
       d="m 154.727,122.685 -1.717,12.922 -8.985,7.381 1.471,-13.113 z"
       id="path8574"
       inkscape:connector-curvature="0" />
    <path
       style="fill:#9558b2;fill-opacity:1;stroke:#020000;stroke-width:0.49999899;stroke-miterlimit:4;stroke-dasharray:none;stroke-opacity:1"
       d="m 145.144,130.149 -1.46,13.12 -9.622,7.903 1.175,-13.306 z"
       id="path8572"
       inkscape:connector-curvature="0" />
    <path
       style="fill:#9558b2;fill-opacity:1;stroke:#020000;stroke-width:0.49999899;stroke-miterlimit:4;stroke-dasharray:none;stroke-opacity:1"
       d="m 134.859,138.16 -1.163,13.313 -10.328,8.484 0.829,-13.492 z"
       id="path8570"
       inkscape:connector-curvature="0" />
    <path
       style="fill:#e6e6e6;fill-opacity:1;stroke:#020000;stroke-width:0.49999899;stroke-miterlimit:4;stroke-dasharray:none;stroke-opacity:1"
       d="m 123.79,146.782 -0.816,13.498 -11.115,9.13 0.426,-13.666 z"
       id="path8568"
       inkscape:connector-curvature="0" />
    <path
       style="fill:#e6e6e6;fill-opacity:1;stroke:#020000;stroke-width:0.49999899;stroke-miterlimit:4;stroke-dasharray:none;stroke-opacity:1"
       d="m 111.845,156.086 -0.41,13.673 -11.9966,9.854 -0.0469,-13.827 z"
       id="path8566"
       inkscape:connector-curvature="0" />
    <path
       style="fill:#9558b2;fill-opacity:1;stroke:#020000;stroke-width:0.49999899;stroke-miterlimit:4;stroke-dasharray:none;stroke-opacity:1"
       d="m 152.949,136.067 -1.607,12.1 -8.743,7.538 1.374,-12.251 z"
       id="path8564"
       inkscape:connector-curvature="0" />
    <path
       style="fill:#9558b2;fill-opacity:1;stroke:#020000;stroke-width:0.49999899;stroke-miterlimit:4;stroke-dasharray:none;stroke-opacity:1"
       d="m 143.632,143.734 -1.365,12.257 -9.341,8.055 1.094,-12.402 z"
       id="path8562"
       inkscape:connector-curvature="0" />
    <path
       style="fill:#9558b2;fill-opacity:1;stroke:#020000;stroke-width:0.49999899;stroke-miterlimit:4;stroke-dasharray:none;stroke-opacity:1"
       d="m 133.655,151.945 -1.084,12.407 -10.003,8.625 0.77,-12.543 z"
       id="path8560"
       inkscape:connector-curvature="0" />
    <path
       style="fill:#e6e6e6;fill-opacity:1;stroke:#020000;stroke-width:0.49999899;stroke-miterlimit:4;stroke-dasharray:none;stroke-opacity:1"
       d="m 122.946,160.758 -0.759,12.547 -10.738,9.259 0.395,-12.67 z"
       id="path8558"
       inkscape:connector-curvature="0" />
    <path
       style="fill:#e6e6e6;fill-opacity:1;stroke:#020000;stroke-width:0.49999899;stroke-miterlimit:4;stroke-dasharray:none;stroke-opacity:1"
       d="m 111.42,170.242 -0.38,12.675 -11.5567,9.964 -0.0433,-12.78 z"
       id="use4093-14-9"
       inkscape:connector-curvature="0" />
    <path
       style="fill:#e6e6e6;fill-opacity:1;stroke:#020000;stroke-width:0.49999899;stroke-miterlimit:4;stroke-dasharray:none;stroke-opacity:1"
       d="m 46.3021,148.696 9.0816,7.545 -1.3583,-12.488 -9.3058,-7.4 z"
       id="path8554"
       inkscape:connector-curvature="0" />
    <path
       style="fill:#cb3c33;fill-opacity:1;stroke:#020000;stroke-width:0.49999899;stroke-miterlimit:4;stroke-dasharray:none;stroke-opacity:1"
       d="m 46.3021,148.696 9.0816,7.545 -1.3583,-12.488 -9.3058,-7.4 z"
       id="path8552"
       inkscape:connector-curvature="0" />
    <path
       style="fill:#cb3c33;fill-opacity:1;stroke:#020000;stroke-width:0.49999899;stroke-miterlimit:4;stroke-dasharray:none;stroke-opacity:1"
       d="m 44.6597,135.886 9.3143,7.394 -1.4453,-13.289 -9.5497,-7.215 z"
       id="path8550"
       inkscape:connector-curvature="0" />
    <path
       style="fill:#cb3c33;fill-opacity:1;stroke:#020000;stroke-width:0.49999899;stroke-miterlimit:4;stroke-dasharray:none;stroke-opacity:1"
       d="m 42.9153,122.279 9.5586,7.208 -1.541,-14.168 -9.8062,-6.991 z"
       id="path8548"
       inkscape:connector-curvature="0" />
    <path
       style="fill:#e6e6e6;fill-opacity:1;stroke:#020000;stroke-width:0.49999899;stroke-miterlimit:4;stroke-dasharray:none;stroke-opacity:1"
       d="m 41.0589,107.799 9.8155,6.982 L 49.228,99.6435 39.1518,92.9238 Z"
       id="path8546"
       inkscape:connector-curvature="0" />
    <path
       style="fill:#e6e6e6;fill-opacity:1;stroke:#020000;stroke-width:0.49999899;stroke-miterlimit:4;stroke-dasharray:none;stroke-opacity:1"
       d="M 39.0794,92.3591 49.1654,99.0682 47.4023,82.8573 37.0417,76.4646 Z"
       id="path8544"
       inkscape:connector-curvature="0" />
    <path
       style="fill:#cb3c33;fill-opacity:1;stroke:#020000;stroke-width:0.49999899;stroke-miterlimit:4;stroke-dasharray:none;stroke-opacity:1"
       d="m 55.7275,156.527 9.6488,8.017 -1.0933,-12.634 -9.9049,-7.877 z"
       id="path8542"
       inkscape:connector-curvature="0" />
    <path
       style="fill:#cb3c33;fill-opacity:1;stroke:#020000;stroke-width:0.49999899;stroke-miterlimit:4;stroke-dasharray:none;stroke-opacity:1"
       d="m 54.3269,143.56 9.9146,7.871 -1.1657,-13.47 -10.1849,-7.696 z"
       id="path8540"
       inkscape:connector-curvature="0" />
    <path
       style="fill:#cb3c33;fill-opacity:1;stroke:#020000;stroke-width:0.49999899;stroke-miterlimit:4;stroke-dasharray:none;stroke-opacity:1"
       d="m 52.8364,129.761 10.1952,7.688 -1.2455,-14.392 -10.4808,-7.472 z"
       id="path8538"
       inkscape:connector-curvature="0" />
    <path
       style="fill:#e6e6e6;fill-opacity:1;stroke:#020000;stroke-width:0.49999899;stroke-miterlimit:4;stroke-dasharray:none;stroke-opacity:1"
       d="M 51.2471,115.047 61.7387,122.51 60.4049,107.097 49.611,99.8989 Z"
       id="path8536"
       inkscape:connector-curvature="0" />
    <path
       style="fill:#e6e6e6;fill-opacity:1;stroke:#020000;stroke-width:0.49999899;stroke-miterlimit:4;stroke-dasharray:none;stroke-opacity:1"
       d="M 49.5488,99.3233 60.3542,106.511 58.9223,89.9654 47.7966,83.1006 Z"
       id="path8534"
       inkscape:connector-curvature="0" />
    <path
       style="fill:#cb3c33;fill-opacity:1;stroke:#020000;stroke-width:0.49999899;stroke-miterlimit:4;stroke-dasharray:none;stroke-opacity:1"
       d="m 65.7419,164.847 10.2709,8.534 -0.7902,-12.772 -10.5639,-8.4 z"
       id="path8532"
       inkscape:connector-curvature="0" />
    <path
       style="fill:#cb3c33;fill-opacity:1;stroke:#020000;stroke-width:0.49999899;stroke-miterlimit:4;stroke-dasharray:none;stroke-opacity:1"
       d="m 64.6176,151.729 10.575,8.395 -0.8444,-13.646 -10.8857,-8.225 z"
       id="path8530"
       inkscape:connector-curvature="0" />
    <path
       style="fill:#cb3c33;fill-opacity:1;stroke:#020000;stroke-width:0.49999899;stroke-miterlimit:4;stroke-dasharray:none;stroke-opacity:1"
       d="m 63.4187,137.741 10.8975,8.218 -0.9042,-14.613 -11.2275,-8.005 z"
       id="path8528"
       inkscape:connector-curvature="0" />
    <path
       style="fill:#e6e6e6;fill-opacity:1;stroke:#020000;stroke-width:0.49999899;stroke-miterlimit:4;stroke-dasharray:none;stroke-opacity:1"
       d="m 62.1375,122.794 11.2401,7.995 -0.9707,-15.688 -11.5912,-7.73 z"
       id="path8526"
       inkscape:connector-curvature="0" />
    <path
       style="fill:#e6e6e6;fill-opacity:1;stroke:#020000;stroke-width:0.49999899;stroke-miterlimit:4;stroke-dasharray:none;stroke-opacity:1"
       d="m 60.7654,106.784 11.6045,7.72 L 71.3252,97.6182 59.3463,90.227 Z"
       id="path8524"
       inkscape:connector-curvature="0" />
    <path
       style="fill:#e6e6e6;fill-opacity:1;stroke:#020000;stroke-width:0.49999899;stroke-miterlimit:4;stroke-dasharray:none;stroke-opacity:1"
       d="m 76.4024,173.705 10.955,9.101 -0.4429,-12.899 -11.2908,-8.979 z"
       id="path8522"
       inkscape:connector-curvature="0" />
    <path
       style="fill:#e6e6e6;fill-opacity:1;stroke:#020000;stroke-width:0.49999899;stroke-miterlimit:4;stroke-dasharray:none;stroke-opacity:1"
       d="m 75.5941,160.443 11.3036,8.973 -0.4743,-13.814 -11.6614,-8.811 z"
       id="path8520"
       inkscape:connector-curvature="0" />
    <path
       style="fill:#e6e6e6;fill-opacity:1;stroke:#020000;stroke-width:0.49999899;stroke-miterlimit:4;stroke-dasharray:none;stroke-opacity:1"
       d="m 74.7304,146.272 11.6749,8.804 -0.5091,-14.83 -12.057,-8.596 z"
       id="path8518"
       inkscape:connector-curvature="0" />
    <path
       style="fill:#e6e6e6;fill-opacity:1;stroke:#020000;stroke-width:0.49999899;stroke-miterlimit:4;stroke-dasharray:none;stroke-opacity:1"
       d="m 73.8053,131.094 12.0715,8.587 -0.5481,-15.962 -12.4801,-8.323 z"
       id="path8516"
       inkscape:connector-curvature="0" />
    <path
       style="fill:#e6e6e6;fill-opacity:1;stroke:#020000;stroke-width:0.49999899;stroke-miterlimit:4;stroke-dasharray:none;stroke-opacity:1"
       d="M 72.8121,114.798 85.3078,123.11 84.7163,105.881 71.7822,97.9002 Z"
       id="path8514"
       inkscape:connector-curvature="0" />
    <path
       style="fill:#e6e6e6;fill-opacity:1;stroke:#020000;stroke-width:0.49999899;stroke-miterlimit:4;stroke-dasharray:none;stroke-opacity:1"
       d="m 87.7734,183.152 11.7099,9.729 -0.0441,-13.014 -12.0955,-9.619 z"
       id="path8512"
       inkscape:connector-curvature="0" />
    <path
       style="fill:#e6e6e6;fill-opacity:1;stroke:#020000;stroke-width:0.49999899;stroke-miterlimit:4;stroke-dasharray:none;stroke-opacity:1"
       d="m 87.3274,169.758 12.1101,9.613 -0.0473,-13.971 -12.523,-9.463 z"
       id="path8510"
       inkscape:connector-curvature="0" />
    <path
       style="fill:#e6e6e6;fill-opacity:1;stroke:#020000;stroke-width:0.49999899;stroke-miterlimit:4;stroke-dasharray:none;stroke-opacity:1"
       d="m 86.8497,155.411 12.5387,9.456 -0.051,-15.038 -12.9818,-9.255 z"
       id="path8508"
       inkscape:connector-curvature="0" />
    <path
       style="fill:#e6e6e6;fill-opacity:1;stroke:#020000;stroke-width:0.49999899;stroke-miterlimit:4;stroke-dasharray:none;stroke-opacity:1"
       d="m 86.3368,140.008 12.9986,9.247 -0.055,-16.232 -13.4755,-8.987 z"
       id="path8506"
       inkscape:connector-curvature="0" />
    <path
       style="fill:#e6e6e6;fill-opacity:1;stroke:#020000;stroke-width:0.49999899;stroke-miterlimit:4;stroke-dasharray:none;stroke-opacity:1"
       d="m 85.7846,123.427 13.4937,8.976 -0.0596,-17.574 -14.0082,-8.643 z"
       id="use4093-14-4"
       inkscape:connector-curvature="0" />
  </g>
</svg>
